<?xml version="1.0" encoding="UTF-8" standalone="no"?>
<!-- Created with Inkscape (http://www.inkscape.org/) -->

<svg
   width="210mm"
   height="297mm"
   viewBox="0 0 210 297"
   version="1.1"
   id="svg1"
   inkscape:version="1.3 (0e150ed6c4, 2023-07-21)"
   sodipodi:docname="рисунок-2.svg"
   xmlns:inkscape="http://www.inkscape.org/namespaces/inkscape"
   xmlns:sodipodi="http://sodipodi.sourceforge.net/DTD/sodipodi-0.dtd"
   xmlns="http://www.w3.org/2000/svg"
   xmlns:svg="http://www.w3.org/2000/svg">
  <sodipodi:namedview
     id="namedview1"
     pagecolor="#ffffff"
     bordercolor="#000000"
     borderopacity="0.25"
     inkscape:showpageshadow="2"
     inkscape:pageopacity="0.0"
     inkscape:pagecheckerboard="0"
     inkscape:deskcolor="#d1d1d1"
     inkscape:document-units="mm"
     inkscape:zoom="0.57192761"
     inkscape:cx="396.02914"
     inkscape:cy="561.25984"
     inkscape:window-width="1600"
     inkscape:window-height="838"
     inkscape:window-x="-8"
     inkscape:window-y="-8"
     inkscape:window-maximized="1"
     inkscape:current-layer="layer1" />
  <defs
     id="defs1">
    <linearGradient
       id="swatch1"
       inkscape:swatch="solid">
      <stop
         style="stop-color:#fff3e8;stop-opacity:1;"
         offset="0"
         id="stop1" />
    </linearGradient>
  </defs>
  <g
     inkscape:label="Слой 1"
     inkscape:groupmode="layer"
     id="layer1">
    <rect
       style="fill:#fff3e8;stroke-width:0.264583;fill-opacity:1;stroke:#000000;stroke-opacity:1"
       id="rect1"
       width="146.1869"
       height="77.719627"
       x="48.574764"
       y="111.02803" />
    <path
       style="fill:#020100;fill-opacity:1;stroke:#000000;stroke-width:0.264583;stroke-opacity:1"
       id="path1"
       d="m 46.641567,111.25256 c -1.500473,0.019 -3.001208,0.0213 -4.501809,0.019 -0.933571,-0.003 -1.86713,-0.007 -2.800707,-0.007 0,0 3.170272,2.30334 3.170272,2.30334 v 0 c 0.926872,4e-5 1.853729,-0.005 2.780599,-0.007 1.517996,-0.002 3.03612,2e-4 4.554,0.019 z" />
    <path
       style="fill:#020100;fill-opacity:1;stroke:#000000;stroke-width:0.264583;stroke-opacity:1"
       id="path2"
       d="m 46.126421,119.58171 c -1.546598,0.0391 -3.084836,0.24179 -4.627412,0.35945 -0.583213,0.044 -1.167622,0.0655 -1.75201,0.0854 0,0 3.190563,2.2982 3.190563,2.2982 v 0 c 0.582573,-0.0278 1.1651,-0.0577 1.746165,-0.10946 1.543182,-0.13607 3.087592,-0.35414 4.639432,-0.31105 z" />
    <path
       style="fill:#020100;fill-opacity:1;stroke:#000000;stroke-width:0.264583;stroke-opacity:1"
       id="path3"
       d="m 45.647689,130.30017 c -1.27648,0.19719 -2.565723,0.28871 -3.854926,0.34861 -1.019482,0.0406 -2.039917,0.0417 -3.060028,0.0423 -0.644959,-0.0472 -1.232763,0.008 -1.836534,0.2343 0,0 3.263691,2.21876 3.263691,2.21876 v 0 c 0.580654,-0.15359 1.162344,-0.15666 1.761498,-0.13755 1.019762,-0.004 2.039919,-0.0128 3.058456,-0.0679 1.302734,-0.0772 2.602225,-0.19566 3.896812,-0.36185 z" />
    <path
       style="fill:#020100;fill-opacity:1;stroke:#000000;stroke-width:0.264583;stroke-opacity:1"
       id="path4"
       d="m 46.622808,140.47952 c -2.081313,0.15219 -4.131741,0.51621 -6.185889,0.86978 -1.352683,0.17245 -2.687252,0.40679 -4.024824,0.66582 -0.162517,0.0261 -0.325035,0.0523 -0.487553,0.0784 0,0 3.224496,2.26014 3.224496,2.26014 v 0 c 0.16364,-0.0298 0.327279,-0.0595 0.490921,-0.0893 1.317099,-0.27144 2.641531,-0.47702 3.968549,-0.69473 2.072868,-0.37828 4.146717,-0.70887 6.254171,-0.817 z" />
    <path
       style="fill:#020100;fill-opacity:1;stroke:#000000;stroke-width:0.264583;stroke-opacity:1"
       id="path5"
       d="m 46.857419,153.56699 c 0.478319,1.27533 0.820031,2.58426 0.207873,3.85828 -0.652568,0.86735 -1.789713,0.97404 -2.798998,0.94001 -1.280149,-0.20283 -2.50856,-0.61856 -3.760907,-0.93703 -1.092131,-0.43747 -2.229143,-0.64828 -3.395014,-0.74942 -0.239289,-0.0329 -0.478575,-0.0659 -0.717865,-0.0988 0,0 3.130389,2.33928 3.130389,2.33928 v 0 c 0.245742,0.0326 0.491485,0.0653 0.737227,0.0979 1.151901,0.13846 2.261915,0.41491 3.358367,0.79628 1.260051,0.33563 2.511165,0.75137 3.818972,0.85437 1.164706,-0.0433 2.353974,-0.2679 3.049148,-1.30169 0.634193,-1.3204 0.471995,-2.71992 -0.08383,-4.05563 z" />
    <path
       style="fill:#020100;fill-opacity:1;stroke:#000000;stroke-width:0.264583;stroke-opacity:1"
       id="path6"
       d="m 45.055329,170.86727 c -1.990915,-0.10389 -3.975952,-0.24317 -5.93594,-0.61821 -0.78368,-0.15255 -1.562534,-0.3146 -2.336623,-0.5095 0,0 3.104126,2.36928 3.104126,2.36928 v 0 c 0.774113,0.17783 1.551231,0.33644 2.332903,0.4782 1.985065,0.33443 3.989311,0.44051 5.991966,0.62193 z" />
    <path
       style="fill:#020100;fill-opacity:1;stroke:#000000;stroke-width:0.264583;stroke-opacity:1"
       id="path7"
       d="m 46.178951,180.64509 c -2.020372,0.0347 -4.041024,0.0366 -6.06162,0.0305 -0.90505,-0.004 -1.810094,-0.009 -2.715136,-0.0141 0,0 3.157369,2.29396 3.157369,2.29396 v 0 c 0.892087,-0.005 1.784172,-0.0104 2.676265,-0.0141 2.04855,-0.006 4.097139,-0.003 6.145475,0.0305 z" />
    <path
       style="fill:#020100;fill-opacity:1;stroke:#000000;stroke-width:0.264583;stroke-opacity:1"
       id="path8"
       d="m 197.72517,114.03775 c 1.93209,-0.0388 3.86462,-0.0159 5.79692,-0.0205 0.30314,0.0227 0.60627,0.0453 0.90941,0.068 0,0 -3.12943,-2.30277 -3.12943,-2.30277 v 0 c -0.30488,-0.0142 -0.60975,-0.0285 -0.91462,-0.0427 -1.95113,-0.005 -3.90247,0.0179 -5.8534,-0.0205 z" />
    <path
       style="fill:#020100;fill-opacity:1;stroke:#000000;stroke-width:0.264583;stroke-opacity:1"
       id="path9"
       d="m 196.44238,120.5103 c 2.79364,-0.051 5.58806,-0.0394 8.38203,-0.0311 1.59288,0.008 0.82571,0.004 2.30152,0.0127 0,0 -3.12909,-2.27341 -3.12909,-2.27341 v 0 c -1.45226,0.009 -0.69673,0.005 -2.26658,0.0127 -2.82256,0.008 -5.64552,0.019 -8.46777,-0.0311 z" />
    <path
       style="fill:#020100;fill-opacity:1;stroke:#000000;stroke-width:0.264583;stroke-opacity:1"
       id="path10"
       d="m 197.65578,128.68215 c 1.13442,-0.31164 2.31759,-0.35491 3.4707,-0.5488 0.20152,-0.0339 1.71661,-0.38512 1.91823,-0.43145 0.29887,-0.0657 0.59774,-0.13138 0.89661,-0.19707 0,0 -3.19257,-2.21393 -3.19257,-2.21393 v 0 c -0.297,0.0675 -0.594,0.13501 -0.89099,0.20251 -1.81364,0.4066 -3.65468,0.59923 -5.47566,0.96758 z" />
    <path
       style="fill:#020100;fill-opacity:1;stroke:#000000;stroke-width:0.264583;stroke-opacity:1"
       id="path11"
       d="m 197.31508,137.62917 c 2.49693,-0.012 5.00262,-0.12321 7.49589,0.0436 1.40629,0.13972 2.81907,0.1891 4.19201,0.53507 0.57757,0.13415 0.29623,0.0487 0.84444,0.25514 0,0 -3.11534,-2.41946 -3.11534,-2.41946 v 0 c -0.57284,-0.16532 -0.28515,-0.0911 -0.863,-0.22294 -1.37274,-0.28742 -2.78332,-0.30842 -4.17641,-0.43883 -2.51928,-0.0995 -5.04282,0.0229 -7.56309,-0.067 z" />
    <path
       style="fill:#020100;fill-opacity:1;stroke:#000000;stroke-width:0.264583;stroke-opacity:1"
       id="path12"
       d="m 197.7777,147.34412 c 2.76955,0.24291 5.5416,0.36313 8.32034,0.44074 0,0 -2.99578,-2.18915 -2.99578,-2.18915 v 0 c -2.84639,-0.0767 -5.68116,-0.22867 -8.51007,-0.566 z" />
    <path
       style="fill:#020100;fill-opacity:1;stroke:#000000;stroke-width:0.264583;stroke-opacity:1"
       id="path13"
       d="m 197.96041,156.78916 c 4.34647,0.73594 8.67286,1.55339 12.96942,2.54412 2.36335,0.5485 1.22459,0.25446 3.41884,0.87223 0,0 -3.00848,-2.3109 -3.00848,-2.3109 v 0 c -2.17313,-0.57608 -1.04936,-0.30133 -3.37323,-0.81638 -4.35652,-0.96666 -8.74819,-1.7439 -13.11478,-2.65687 z" />
    <path
       style="fill:#020100;fill-opacity:1;stroke:#000000;stroke-width:0.264583;stroke-opacity:1"
       id="path14"
       d="m 197.16764,162.59823 c 2.89518,-0.14852 5.79027,-0.29739 8.68586,-0.43787 0,0 -2.9146,-2.09662 -2.9146,-2.09662 v 0 c -2.97192,0.13671 -5.9465,0.3067 -8.92308,0.24456 z" />
    <path
       style="fill:#020100;fill-opacity:1;stroke:#000000;stroke-width:0.264583;stroke-opacity:1"
       id="path15"
       d="m 197.62011,175.56986 c 1.32725,-0.0224 2.65153,-0.0178 3.97715,-0.0921 0,0 -3.13378,-2.25321 -3.13378,-2.25321 v 0 c -1.34831,0.058 -2.6965,0.0575 -4.04572,0.0186 z" />
    <path
       style="fill:#020100;fill-opacity:1;stroke:#000000;stroke-width:0.264583;stroke-opacity:1"
       id="path16"
       d="m 197.83023,185.27666 c 2.24349,-0.0508 4.48348,-0.0739 6.7193,0.13002 1.26876,0.14187 2.53859,0.26769 3.81489,0.30915 0,0 -3.17086,-2.32329 -3.17086,-2.32329 v 0 c -1.25816,-0.0603 -2.51167,-0.17652 -3.76574,-0.29279 -2.25701,-0.16059 -4.51646,-0.0872 -6.77748,-0.13342 z" />
    <path
       style="fill:#020100;fill-opacity:1;stroke:#000000;stroke-width:0.264583;stroke-opacity:1"
       id="path17"
       d="m 197.31508,170.47496 c 2.22363,-0.0188 4.45449,-0.0852 6.66138,-0.37192 0.28614,-0.0443 0.57227,-0.0886 0.85841,-0.13297 0,0 -3.18405,-2.23858 -3.18405,-2.23858 v 0 c -0.27966,0.0443 -0.55932,0.0887 -0.83898,0.13299 -2.21497,0.27608 -4.45113,0.36887 -6.68226,0.29607 z" />
    <rect
       style="fill:#e20011;fill-opacity:1;stroke:#000000;stroke-width:0.264583;stroke-opacity:1"
       id="rect17"
       width="15.728971"
       height="17.116823"
       x="60.602806"
       y="120.74299" />
    <rect
       style="fill:#e20011;fill-opacity:1;stroke:#000000;stroke-width:0.264583;stroke-opacity:1"
       id="rect18"
       width="22.205606"
       height="19.429907"
       x="92.985985"
       y="122.13084"
       ry="0" />
    <rect
       style="fill:#e20011;fill-opacity:1;stroke:#000000;stroke-width:0.264583;stroke-opacity:1"
       id="rect19"
       width="19.429907"
       height="11.102803"
       x="128.14485"
       y="125.83177" />
    <rect
       style="fill:#e20011;fill-opacity:1;stroke:#000000;stroke-width:0.264583;stroke-opacity:1"
       id="rect20"
       width="2.3130841"
       height="6.014019"
       x="140.1729"
       y="126.757" />
    <rect
       style="fill:#e20011;fill-opacity:1;stroke:#000000;stroke-width:0.264583;stroke-opacity:1"
       id="rect21"
       width="22.205606"
       height="12.490654"
       x="165.15421"
       y="126.29439" />
    <rect
       style="fill:#e20011;fill-opacity:1;stroke:#000000;stroke-width:0.264583;stroke-opacity:1"
       id="rect22"
       width="15.728971"
       height="10.17757"
       x="55.976635"
       y="176.257" />
    <rect
       style="fill:#e20011;fill-opacity:1;stroke:#000000;stroke-width:0.264583;stroke-opacity:1"
       id="rect23"
       width="7.8644857"
       height="8.3271027"
       x="78.182243"
       y="177.64485" />
    <rect
       style="fill:#e20011;fill-opacity:1;stroke:#000000;stroke-width:0.264583;stroke-opacity:1"
       id="rect24"
       width="12.953271"
       height="9.7149534"
       x="94.836449"
       y="178.57008" />
    <rect
       style="fill:#e20011;fill-opacity:1;stroke:#000000;stroke-width:0.264583;stroke-opacity:1"
       id="rect25"
       width="16.654205"
       height="9.2523365"
       x="121.66823"
       y="176.71962" />
    <rect
       style="fill:#e20011;fill-opacity:1;stroke:#000000;stroke-width:0.264583;stroke-opacity:1"
       id="rect26"
       width="17.579439"
       height="11.102803"
       x="145.26167"
       y="176.71962" />
    <rect
       style="fill:#e20011;fill-opacity:1;stroke:#000000;stroke-width:0.264583;stroke-opacity:1"
       id="rect27"
       width="17.579439"
       height="10.640186"
       x="174.86916"
       y="177.64485" />
  </g>
</svg>
